<?xml version="1.0" encoding="UTF-8" standalone="no"?><!DOCTYPE svg PUBLIC "-//W3C//DTD SVG 1.1//EN" "http://www.w3.org/Graphics/SVG/1.1/DTD/svg11.dtd"><svg width="100%" height="100%" viewBox="0 0 333 307" version="1.1" xmlns="http://www.w3.org/2000/svg" xmlns:xlink="http://www.w3.org/1999/xlink" xml:space="preserve" xmlns:serif="http://www.serif.com/" style="fill-rule:evenodd;clip-rule:evenodd;stroke-linejoin:round;stroke-miterlimit:2;"><g id="Background"></g><rect id="Artboard1" x="0" y="0" width="332.89" height="306.015" style="fill:none;"/><path d="M294.272,209.605l-0.422,1.637c-0.539,2.092 -2.172,3.725 -4.264,4.264l-1.637,0.422l1.637,0.422c2.092,0.539 3.725,2.172 4.264,4.263l0.422,1.637l0.422,-1.637c0.539,-2.091 2.172,-3.724 4.264,-4.263l1.637,-0.422l-1.637,-0.422c-2.092,-0.539 -3.725,-2.172 -4.264,-4.264l-0.422,-1.637Z" style="fill:#ffcb55;fill-rule:nonzero;"/><path d="M186.17,63.946c-3.83,0.025 -7.66,0.068 -11.49,0.13c-0.053,-3.246 -0.105,-6.492 -0.158,-9.738c3.862,-0.062 7.724,-0.106 11.585,-0.131c0.021,3.246 0.042,6.493 0.063,9.739" style="fill:#ffca53;fill-rule:nonzero;"/><path d="M325.207,287.305c-5.634,12.208 -75.022,8.139 -156.957,8.473c-81.936,-0.334 -151.324,3.735 -156.958,-8.473c-5.956,-11.714 63.292,-37.295 156.958,-37.147c93.665,-0.148 162.913,25.433 156.957,37.147" style="fill:#616161;fill-rule:nonzero;"/><path d="M163.358,28.3c-3.271,3.214 -4.651,8.227 -3.484,12.662c1.166,4.436 4.834,8.121 9.264,9.309c-2.243,-1.595 -2.77,-4.56 -2.665,-7.31c0.105,-2.751 0.849,-5.461 0.792,-8.213c-0.058,-2.752 -1.417,-5.273 -3.907,-6.448" style="fill:#813600;fill-rule:nonzero;"/><path d="M205.692,69.142c-3.309,-1.691 -7.361,-0.379 -9.051,2.928l-14.537,28.439c-3.646,7.135 -10.889,11.577 -18.902,11.593l-31.569,0.061c1.372,4.453 1.723,9.001 2.237,13.449l29.358,-0.058c13.081,-0.025 24.904,-7.276 30.856,-18.922l14.537,-28.439c1.69,-3.308 0.379,-7.36 -2.929,-9.051" style="fill:#a1370f;fill-rule:nonzero;"/><path d="M208.456,149.681l-61.976,0c-8.668,0 -15.695,7.027 -15.695,15.695l0,67.146l15.695,0l0,-62.739c0,-2.434 1.973,-4.407 4.407,-4.407l41.874,0c8.668,0 15.695,-7.027 15.695,-15.695Z" style="fill:#003d46;fill-rule:nonzero;"/><rect x="132.158" y="229.7" width="13.117" height="16.816" style="fill:#c79965;"/><rect x="128.766" y="227.866" width="19.732" height="4.657" style="fill:#002127;"/><path d="M292.071,169.534l-77.636,0l0,-65.254c0,-9.946 8.063,-18.008 18.009,-18.008l41.618,0c9.946,0 18.009,8.062 18.009,18.008l0,65.254Z" style="fill:#d13f00;fill-rule:nonzero;"/><path d="M281.022,169.534l-55.096,0l0,-42.665c0,-15.214 12.333,-27.548 27.548,-27.548c15.214,0 27.548,12.334 27.548,27.548l0,42.665Z" style="fill:#a02d00;fill-rule:nonzero;"/><path d="M96.813,250.542c0,20.02 -16.229,36.249 -36.249,36.249c-20.019,0 -36.249,-16.229 -36.249,-36.249c0,-20.02 16.23,-36.249 36.249,-36.249c20.02,0 36.249,16.229 36.249,36.249" style="fill:#4e2703;fill-rule:nonzero;"/><path d="M88.224,250.542c0,15.276 -12.384,27.66 -27.66,27.66c-15.276,0 -27.659,-12.384 -27.659,-27.66c0,-15.276 12.383,-27.66 27.659,-27.66c15.276,0 27.66,12.384 27.66,27.66" style="fill:#462103;fill-rule:nonzero;"/><path d="M83.423,250.542c0,12.624 -10.234,22.858 -22.858,22.858c-12.625,0 -22.859,-10.234 -22.859,-22.858c0,-12.624 10.234,-22.858 22.859,-22.858c12.624,0 22.858,10.234 22.858,22.858" style="fill:#9d704c;fill-rule:nonzero;"/><path d="M73.464,231.676c3.186,3.929 5.101,8.929 5.101,14.381c0,12.625 -10.234,22.859 -22.858,22.859c-4.788,0 -9.228,-1.478 -12.9,-3.993c4.191,5.168 10.585,8.477 17.758,8.477c12.624,0 22.858,-10.234 22.858,-22.858c0,-7.837 -3.948,-14.748 -9.959,-18.866" style="fill:#926847;fill-rule:nonzero;"/><path d="M71.527,250.542c0,6.055 -4.908,10.963 -10.963,10.963c-6.054,0 -10.963,-4.908 -10.963,-10.963c0,-6.055 4.909,-10.963 10.963,-10.963c6.055,0 10.963,4.908 10.963,10.963" style="fill:#aa8e7a;fill-rule:nonzero;"/><path d="M69.406,243.182l7.665,7.665c4.689,4.689 11.049,7.323 17.681,7.323l5.544,0c2.583,0 4.793,-1.902 5.127,-4.463c0.548,-4.196 0.51,-8.574 -0.249,-13.07c-3.372,-19.975 -20.219,-35.331 -40.427,-36.743c-18.712,-1.308 -35.15,9.036 -42.814,24.503c-1.701,3.432 0.809,7.461 4.641,7.461l25.151,0c6.632,0 12.992,2.635 17.681,7.324" style="fill:#00a6ff;fill-rule:nonzero;"/><path d="M105.423,253.707c0.548,-4.195 0.51,-8.574 -0.249,-13.07c-0.096,-0.564 -0.205,-1.124 -0.322,-1.682l-16.191,-25.847c-6.739,-5.251 -14.999,-8.591 -23.915,-9.214c-6.688,-0.467 -13.082,0.561 -18.892,2.772c0.534,0.886 1.309,1.631 2.285,2.107c3.66,1.784 22.596,-0.951 27.56,8.977c4.409,8.817 14.796,26.992 22.577,40.421l2.02,0c2.583,0 4.792,-1.903 5.127,-4.464" style="fill:#009cf0;fill-rule:nonzero;"/><path d="M308.565,190.648l-0.343,0c-1.724,0 -3.282,-1.027 -3.961,-2.612c-0.679,-1.584 -2.237,-2.611 -3.961,-2.611l-11.172,0l0,18.638l22.002,0c2.852,0 4.776,-2.917 3.652,-5.539l-2.256,-5.264c-0.679,-1.585 -2.237,-2.612 -3.961,-2.612" style="fill:#fc1f00;fill-rule:nonzero;"/><path d="M310.943,250.542c0,20.02 -16.229,36.249 -36.249,36.249c-20.019,0 -36.249,-16.229 -36.249,-36.249c0,-20.02 16.23,-36.249 36.249,-36.249c20.02,0 36.249,16.229 36.249,36.249" style="fill:#4e2703;fill-rule:nonzero;"/><path d="M302.353,250.542c0,15.276 -12.384,27.66 -27.66,27.66c-15.276,0 -27.659,-12.384 -27.659,-27.66c0,-15.276 12.383,-27.66 27.659,-27.66c15.276,0 27.66,12.384 27.66,27.66" style="fill:#462103;fill-rule:nonzero;"/><path d="M297.552,250.542c0,12.624 -10.234,22.858 -22.858,22.858c-12.625,0 -22.859,-10.234 -22.859,-22.858c0,-12.624 10.234,-22.858 22.859,-22.858c12.624,0 22.858,10.234 22.858,22.858" style="fill:#9d704c;fill-rule:nonzero;"/><path d="M287.593,231.676c3.186,3.929 5.101,8.929 5.101,14.381c0,12.625 -10.234,22.859 -22.858,22.859c-4.788,0 -9.228,-1.478 -12.9,-3.993c4.191,5.168 10.585,8.477 17.758,8.477c12.624,0 22.858,-10.234 22.858,-22.858c0,-7.837 -3.948,-14.748 -9.959,-18.866" style="fill:#926847;fill-rule:nonzero;"/><path d="M285.657,250.542c0,6.055 -4.908,10.963 -10.963,10.963c-6.054,0 -10.963,-4.908 -10.963,-10.963c0,-6.055 4.909,-10.963 10.963,-10.963c6.055,0 10.963,4.908 10.963,10.963" style="fill:#aa8e7a;fill-rule:nonzero;"/><path d="M107.839,104.906l-9.494,-3.698c0,0 -12.824,10.275 -2.873,24.18l12.367,-20.482Z" style="fill:#b2e8fd;fill-rule:nonzero;"/><path d="M99.778,131.721c0.725,-2.915 -1.195,-5.827 -4.16,-6.309l-0.146,-0.024l2.872,-24.18l9.42,-2.83c6.839,-2.054 14.238,-0.962 20.191,2.982l3.114,2.063c3.926,2.601 5.855,7.342 4.86,11.944l-0.346,1.6c-2.174,10.057 -6.556,19.506 -12.829,27.662l-5.575,7.248l-17.401,-20.156Z" style="fill:#0094e3;fill-rule:nonzero;"/><path d="M129.873,109.913c1.447,5.121 -1.531,10.446 -6.652,11.893c-5.121,1.447 -10.445,-1.531 -11.893,-6.652c-1.447,-5.121 1.531,-10.445 6.652,-11.893c5.121,-1.447 10.446,1.531 11.893,6.652" style="fill:#0089d5;fill-rule:nonzero;"/><path d="M285.657,250.542c0,6.055 -4.908,10.963 -10.963,10.963c-6.054,0 -10.963,-4.908 -10.963,-10.963c0,-6.055 4.909,-10.963 10.963,-10.963c6.055,0 10.963,4.908 10.963,10.963" style="fill:#c79065;fill-rule:nonzero;"/><path d="M274.507,264.275l-54.373,0c-8.359,0 -15.135,-6.776 -15.135,-15.135c0,-8.359 6.776,-15.135 15.135,-15.135l54.373,0c8.359,0 15.135,6.776 15.135,15.135c0,8.359 -6.776,15.135 -15.135,15.135" style="fill:#004975;fill-rule:nonzero;"/><path d="M219.339,264.235l6.867,-16.963l57.927,-9.811c-2.616,-2.159 -5.97,-3.455 -9.626,-3.455l-54.373,0c-8.359,0 -15.135,6.776 -15.135,15.134c0,8.091 6.353,14.679 14.34,15.095" style="fill:#00385d;fill-rule:nonzero;"/><path d="M99.989,130.304c0,0 -48.223,47.239 -50.104,67.927c-0.186,2.047 1.019,3.945 2.877,4.823c3.621,1.712 22.723,-1.053 27.795,9.09c5.124,10.249 18.33,33.147 26.126,46.53c3.705,6.361 10.509,10.272 17.87,10.272l75.242,0c8.405,0 16.035,-4.908 19.52,-12.556l7.732,-16.966l77.082,-13.056c8.036,-1.05 12.67,-9.637 9.182,-16.952c-9.419,-19.757 -33.46,-47.462 -94.112,-35.389c-88.113,17.539 -60.552,3.235 -43.723,32.512c0,0 16.443,26.906 -5.979,32.138c-22.422,5.231 -40.359,7.474 -50.823,-10.464c-10.464,-17.937 -0.374,-45.217 0.747,-60.913c1.121,-15.695 8.222,-25.785 -19.432,-36.996" style="fill:#00a6ff;fill-rule:nonzero;"/><path d="M203.159,265.022c5.472,0 10.606,-2.09 14.492,-5.652c0.625,-0.94 1.187,-1.932 1.665,-2.98l4.615,-10.128l-78.109,2.736c-12.407,0.435 -24.106,-5.776 -30.696,-16.297l-20.591,-32.87c-6.01,-9.594 -6.978,-21.508 -2.591,-31.943c4.432,-10.54 9.901,-23.051 12.904,-28.055c1.485,-2.476 2.073,-4.581 2.142,-6.343c-2.041,-1.056 -4.359,-2.116 -6.999,-3.186c-8.791,10.464 -44.61,46.472 -46.672,63.347c-0.284,2.323 0.938,4.566 3.041,5.592c3.66,1.783 22.596,-0.951 27.561,8.977c5.124,10.249 18.331,33.149 26.127,46.532c3.705,6.359 10.507,10.27 17.867,10.27l75.244,0Z" style="fill:#0099eb;fill-rule:nonzero;"/><path d="M313.312,209.416c-0.221,-0.463 -0.45,-0.933 -0.688,-1.407c-16.581,-33.063 -58.609,-43.665 -89.506,-23.332c-25.691,16.906 -43.688,55.61 -43.717,71.462c-0.015,8.104 21.007,-0.457 28.718,-2.953l13.51,-2.177l5.419,-11.585l77.082,-13.056c8.036,-1.05 12.67,-9.637 9.182,-16.952" style="fill:#00b7fe;fill-rule:nonzero;"/><path d="M313.312,209.416c-0.221,-0.463 -0.45,-0.933 -0.688,-1.407c-15.113,-30.136 -51.364,-41.6 -81.061,-27.998c23.398,-1.058 46.573,11.035 57.891,33.603c0.238,0.475 0.468,0.944 0.689,1.407c2.449,5.138 0.883,10.891 -3.043,14.232l17.03,-2.885c8.036,-1.05 12.67,-9.637 9.182,-16.952" style="fill:#00a6e9;fill-rule:nonzero;"/><path d="M49.955,197.576c-0.284,2.322 0.939,4.566 3.042,5.591c3.66,1.784 22.596,-0.951 27.56,8.977c5.125,10.25 18.331,33.15 26.128,46.533c3.704,6.359 10.506,10.27 17.866,10.27l75.244,0c8.405,0 16.035,-4.909 19.521,-12.556l2.852,-6.261l-79.709,2.793c-12.408,0.434 -24.106,-5.777 -30.697,-16.298l-20.591,-32.87c-6.01,-9.593 -6.978,-21.508 -2.59,-31.943c4.431,-10.539 9.9,-23.05 12.903,-28.055c5.606,-9.342 -1.495,-13.453 -1.495,-13.453c0,0 -47.483,46.404 -50.034,67.272" style="fill:#00b8fe;fill-rule:nonzero;"/><path d="M292.631,176.447l-75.861,0c-2.786,0 -5.045,-2.259 -5.045,-5.045c0,-2.786 2.259,-5.045 5.045,-5.045l75.861,0c2.786,0 5.045,2.259 5.045,5.045c0,2.786 -2.259,5.045 -5.045,5.045" style="fill:#dfdfdf;fill-rule:nonzero;"/><path d="M292.631,171.192l-75.861,0c-1.82,0 -3.401,-0.972 -4.288,-2.417c-0.471,0.767 -0.757,1.661 -0.757,2.627c0,2.786 2.259,5.045 5.045,5.045l75.861,0c2.786,0 5.045,-2.259 5.045,-5.045c0,-0.966 -0.286,-1.86 -0.757,-2.627c-0.887,1.445 -2.468,2.417 -4.288,2.417" style="fill:#d0d0d0;fill-rule:nonzero;"/><path d="M219.701,168.323c-1.568,-4.497 -7.015,-7.312 -12.541,-6.435c-19.313,3.065 -23.011,-6.599 -42.413,5.461c-11.089,6.893 -11.64,14.18 -9.454,19.717c1.964,4.973 10.329,6.268 14.781,2.369c0,0 26.235,-2.799 42.944,-4.646c4.967,-0.549 8.616,-4.192 8.308,-8.355c-0.207,-2.787 -0.726,-5.532 -1.625,-8.111" style="fill:#4e2703;fill-rule:nonzero;"/><path d="M157.263,173.781c-3.682,4.792 -3.481,9.457 -1.97,13.284c0.389,0.984 1.035,1.818 1.845,2.503l0,-14.786c0,-0.346 0.05,-0.678 0.125,-1.001" style="fill:#3c1c02;fill-rule:nonzero;"/><path d="M216.148,163.838c-2.433,-1.676 -5.693,-2.473 -8.988,-1.95c-19.313,3.065 -23.012,-6.599 -42.414,5.461c-1.715,1.066 -3.176,2.141 -4.416,3.218c0.388,-0.112 0.79,-0.191 1.214,-0.191l41.874,0c5.247,0 9.88,-2.584 12.73,-6.538" style="fill:#3c1c02;fill-rule:nonzero;"/><path d="M265.034,222.519l-34.863,5.641c-1.313,0.213 -2.549,-0.679 -2.761,-1.992c-0.213,-1.313 0.679,-2.549 1.992,-2.762l34.863,-5.641c1.313,-0.212 2.549,0.68 2.761,1.992c0.213,1.313 -0.679,2.55 -1.992,2.762" style="fill:#008fca;fill-rule:nonzero;"/><path d="M265.034,214.693l-34.863,5.641c-1.313,0.213 -2.549,-0.679 -2.761,-1.992c-0.213,-1.313 0.679,-2.549 1.992,-2.762l34.863,-5.641c1.313,-0.212 2.549,0.68 2.761,1.992c0.213,1.313 -0.679,2.55 -1.992,2.762" style="fill:#008fca;fill-rule:nonzero;"/><path d="M265.034,206.867l-34.863,5.641c-1.313,0.213 -2.549,-0.679 -2.761,-1.992c-0.213,-1.313 0.679,-2.549 1.992,-2.762l34.863,-5.641c1.313,-0.212 2.549,0.68 2.761,1.992c0.213,1.313 -0.679,2.55 -1.992,2.762" style="fill:#008fca;fill-rule:nonzero;"/><path d="M285.064,249.467c0,6.579 -5.333,11.912 -11.912,11.912c-6.578,0 -11.911,-5.333 -11.911,-11.912c0,-6.579 5.333,-11.912 11.911,-11.912c6.579,0 11.912,5.333 11.912,11.912" style="fill:#007dc3;fill-rule:nonzero;"/><path d="M273.152,237.556c-1.577,0 -3.08,0.314 -4.457,0.871c6.303,0.308 11.324,5.501 11.324,11.881c0,5.002 -3.086,9.276 -7.455,11.042c0.196,0.009 0.39,0.029 0.588,0.029c6.579,0 11.912,-5.333 11.912,-11.911c0,-6.579 -5.333,-11.912 -11.912,-11.912" style="fill:#006faf;fill-rule:nonzero;"/><path d="M202.768,96.815c-1.87,-12.817 -8.736,-24.82 -18.835,-32.931l8.423,-10.49c12.722,10.217 21.369,25.335 23.725,41.479l-13.313,1.942Z" style="fill:#ffd18d;fill-rule:nonzero;"/><path d="M124.652,113.479c-0.561,0 -1.044,-0.419 -1.112,-0.99l-5.045,-42.788c-0.022,-0.187 0.004,-0.376 0.074,-0.55l7.287,-18.124c0.23,-0.575 0.884,-0.854 1.458,-0.622c0.574,0.231 0.853,0.884 0.622,1.458l-7.18,17.859l5.011,42.505c0.072,0.614 -0.367,1.172 -0.982,1.244c-0.045,0.006 -0.089,0.008 -0.133,0.008" style="fill:#006eac;fill-rule:nonzero;"/><path d="M216.864,149.681l-61.976,0c-8.668,0 -15.695,7.027 -15.695,15.695l0,67.146l15.695,0l0,-62.739c0,-2.434 1.973,-4.407 4.407,-4.407l41.874,0c8.668,0 15.695,-7.027 15.695,-15.695Z" style="fill:#004d59;fill-rule:nonzero;"/><rect x="140.566" y="229.7" width="13.117" height="16.816" style="fill:#ffd18d;"/><rect x="137.174" y="227.866" width="19.732" height="4.657" style="fill:#00333b;"/><g opacity="0.1"><path d="M212.644,149.681c-1.684,6.854 -7.852,11.945 -15.226,11.945l-41.874,0c-2.433,0 -4.406,1.973 -4.406,4.407l0,58.082l2.018,0l0,4.657l-2.018,0l-1.205,0l0,13.994l-9.367,0l0,3.75l13.117,0l0,-13.994l3.223,0l0,-4.657l-2.018,0l0,-58.082c0,-2.434 1.973,-4.407 4.406,-4.407l41.874,0c8.669,0 15.696,-7.027 15.696,-15.695l-4.22,0Z" style="fill-rule:nonzero;"/></g><path d="M215.034,163.081c-11.94,-4.204 -23.88,-9.103 -35.821,-13.306c7.199,-19.551 8.892,-39.816 5.081,-60.03c-1.825,-10.021 3.024,-20.914 12.83,-24.689c9.743,-3.785 21.993,4.023 24.611,17.94c5.026,26.659 2.792,54.301 -6.701,80.085" style="fill:#ff6824;fill-rule:nonzero;"/><path d="M196.775,77.909l-11.412,18.671c0.961,7.556 1.152,15.106 0.574,22.612c2.147,-2.055 4.061,-4.396 5.662,-7.015l16.656,-27.252c1.937,-3.17 0.937,-7.31 -2.232,-9.248c-3.171,-1.937 -7.311,-0.937 -9.248,2.232" style="fill:#ff6122;fill-rule:nonzero;"/><path d="M221.735,82.996c-2.597,-13.805 -14.67,-21.593 -24.375,-18.023c6.667,2.258 12.639,8.795 14.375,18.023c4.817,25.55 2.946,51.999 -5.573,76.854c2.957,1.106 5.915,2.19 8.872,3.231c9.493,-25.784 11.727,-53.426 6.701,-80.085" style="fill:#ff6122;fill-rule:nonzero;"/><path d="M135.548,105.485c-2.792,-0.389 -5.649,-0.311 -8.415,0.23c-1.795,-1.847 -4.53,-2.801 -7.105,-2.785c-1.459,0.009 -2.953,0.237 -4.219,0.962c-1.882,1.076 -3.03,3.117 -3.627,5.202c-0.782,2.73 -0.741,5.758 0.48,8.323c1.222,2.564 3.714,4.579 6.539,4.874c0.658,0.068 1.344,0.022 1.975,-0.186c0.568,-0.188 1.113,-0.832 1.608,-0.83c0.33,0.002 0.723,0.212 1.071,0.242c0.368,0.031 0.739,0.011 1.103,-0.047c0.737,-0.118 1.449,-0.402 2.075,-0.805c1.308,-0.841 2.264,-2.129 3.058,-3.465c2.243,-0.946 4.521,-1.395 6.95,-1.228c0.81,-3.473 0.298,-7.403 -1.493,-10.487" style="fill:#ffd18d;fill-rule:nonzero;"/><path d="M125.927,111.029c0.831,2.942 -0.879,6.001 -3.821,6.832c-2.942,0.832 -6.001,-0.879 -6.832,-3.821c-0.832,-2.942 0.879,-6.001 3.821,-6.832c2.942,-0.832 6.001,0.879 6.832,3.821" style="fill:#005e92;fill-rule:nonzero;"/><path d="M210.356,67.079c-3.171,-1.938 -7.311,-0.938 -9.248,2.232l-16.656,27.251c-4.178,6.837 -11.738,10.716 -19.728,10.122l-31.483,-2.338c1.029,4.544 1.034,9.105 1.208,13.58l29.278,2.174c13.044,0.969 25.385,-5.362 32.205,-16.522l16.656,-27.252c1.937,-3.169 0.938,-7.31 -2.232,-9.247" style="fill:#c74515;fill-rule:nonzero;"/><path d="M202.055,44.111c0,12.306 -8.742,22.282 -19.525,22.282c-10.783,0 -19.525,-9.976 -19.525,-22.282c0,-12.306 8.742,-22.282 19.525,-22.282c10.783,0 19.525,9.976 19.525,22.282" style="fill:#ffd18d;fill-rule:nonzero;"/><path d="M171.366,42.476c0,2.167 -0.753,3.924 -1.682,3.924c-0.928,0 -1.681,-1.757 -1.681,-3.924c0,-2.167 0.753,-3.924 1.681,-3.924c0.929,0 1.682,1.757 1.682,3.924" style="fill:#92795e;fill-rule:nonzero;"/><path d="M166.182,51.876c-1.503,1.566 -4.608,0.859 -5.286,-1.204c-0.677,-2.062 1.405,-4.472 3.543,-4.103c2.143,0.371 3.249,3.739 1.743,5.307" style="fill:#ffd18d;fill-rule:nonzero;"/><path d="M166.332,56.554c1.943,3.288 4.646,5.93 7.808,7.653c0.705,-0.762 1.291,-1.633 1.72,-2.579c1.145,-2.531 1.2,-5.374 0.048,-7.903c-2.826,1.849 -6.201,2.821 -9.576,2.829" style="fill:#ffedd4;fill-rule:nonzero;"/><path d="M176.685,56.567c-0.106,-0.968 -0.36,-1.926 -0.777,-2.841c-2.826,1.849 -6.201,2.82 -9.576,2.828c0.581,0.984 1.237,1.901 1.946,2.761c2.976,-0.192 5.903,-1.126 8.407,-2.748" style="fill:#fff9f0;fill-rule:nonzero;"/><path d="M163.991,33.213c0.664,2.637 3.005,4.513 5.42,5.763c2.415,1.25 5.063,2.095 7.25,3.711c3.295,2.434 5.235,6.594 4.983,10.683c3.848,-2.108 5.366,-6.804 4.662,-11.134c-0.703,-4.331 -3.365,-8.108 -6.44,-11.238c-1.813,-1.846 -3.913,-3.588 -6.446,-4.117c-2.132,-0.445 -4.444,0.054 -6.202,1.34c-1.759,1.285 -3.759,2.88 -3.227,4.992" style="fill:#813600;fill-rule:nonzero;"/><path d="M213.229,35.191c-0.526,-10.228 -6.077,-18.778 -13.925,-23.517c-2.372,-1.432 -5.051,-2.241 -7.789,-2.477l-0.041,-0.004c-7.678,-0.658 -15.608,1.035 -22.056,5.303c-4.997,3.308 -9.031,8.21 -11.207,13.863c-0.791,2.055 0.841,4.217 2.989,3.997c2.676,-0.274 5.584,-0.001 7.517,0.938c3.12,1.515 5.541,4.483 6.441,7.896c1.205,4.57 -0.244,9.347 -1.076,13.99c-0.004,0.024 -0.009,0.048 -0.013,0.073c-0.79,4.466 2.182,8.794 6.558,9.561c3.243,0.568 6.646,0.56 10.09,-0.12c13.748,-2.714 23.251,-15.151 22.512,-29.503" style="fill:#0094e3;fill-rule:nonzero;"/><path d="M210.714,48.69c-3.481,3.654 -7.371,6.919 -11.592,9.684c-2.599,1.702 -5.35,3.233 -8.337,4.088c-2.987,0.855 -6.243,0.999 -9.171,-0.04c-1.477,-0.524 -2.908,-1.402 -3.667,-2.774c-0.827,-1.496 -0.728,-3.31 -0.617,-5.016c0.265,-4.058 0.474,-8.132 0.181,-12.188c-0.246,-3.396 -0.914,-6.927 -3.043,-9.584c-2.21,-2.758 -5.74,-4.197 -9.25,-4.608c-2.33,-0.273 -4.675,-0.139 -7.012,0.126c-0.773,2.049 0.853,4.196 2.993,3.977c2.677,-0.274 5.585,-0.001 7.517,0.938c3.121,1.515 5.542,4.483 6.442,7.896c1.204,4.57 -0.245,9.347 -1.076,13.99c-0.005,0.024 -0.009,0.048 -0.013,0.073c-0.79,4.467 2.181,8.794 6.557,9.561c3.243,0.568 6.646,0.56 10.091,-0.12c9.132,-1.802 16.369,-7.908 19.997,-16.003" style="fill:#0085cd;fill-rule:nonzero;"/><path d="M132.314,52.005c0,7.327 -1.589,13.266 -3.55,13.266c-1.961,0 -3.55,-5.939 -3.55,-13.266c0,-7.327 1.589,-13.266 3.55,-13.266c1.961,0 3.55,5.939 3.55,13.266" style="fill:#cacaca;fill-rule:nonzero;"/><path d="M142.459,252.922l15.547,-0.545c-0.181,-2.133 -0.41,-4.263 -0.747,-6.377c-0.15,-0.942 -0.32,-1.894 -0.731,-2.755c-0.186,-0.391 -0.482,-0.754 -0.835,-1.062c-0.576,-0.504 -1.453,-0.311 -1.862,0.336c-0.436,0.688 -1.125,1.237 -1.875,1.58c-1.135,0.52 -2.404,0.651 -3.646,0.774c-0.975,0.097 -1.82,0.039 -2.756,0.328c-0.844,0.261 -1.705,0.524 -2.588,0.522c-0.884,-0.002 -1.811,-0.31 -2.355,-1.007c-0.517,-0.662 -0.613,-1.557 -1.005,-2.299c-0.261,-0.494 -0.723,-0.948 -1.281,-0.945c-0.793,0.005 -1.33,0.901 -1.562,1.574c-0.177,0.515 -0.47,0.989 -0.909,1.311c-2.49,1.825 -4.923,2.922 -8.011,3.099c-1.645,0.095 -3.318,0.084 -4.963,0.208c1.492,0.924 3.05,1.733 4.652,2.448c4.635,1.989 9.716,2.993 14.927,2.81" style="fill:#007893;fill-rule:nonzero;"/><g opacity="0.38"><path d="M167.777,24.241c-4.409,2.401 -10.327,-0.093 -14.688,2.395c-2.354,1.344 -3.741,3.873 -4.9,6.323c-2.626,5.55 -4.732,11.614 -4.08,17.719c0.631,5.918 3.981,11.49 8.91,14.824c4.93,3.333 11.35,4.366 17.076,2.748c2.09,-3.871 2.919,-7.883 2.732,-12.278c-0.187,-4.395 -0.688,-8.849 0.207,-13.156c0.665,-3.202 2.289,-6.379 4.786,-8.39c1.903,-1.531 2.15,-4.407 0.556,-6.258c-0.837,-0.972 -1.833,-1.815 -2.902,-2.483c-2.547,-1.59 -5.06,-2.88 -7.697,-1.444" style="fill:#91ffe6;fill-rule:nonzero;"/></g><path d="M177.345,29.21c0,0.826 -0.669,1.495 -1.495,1.495c-0.825,0 -1.495,-0.669 -1.495,-1.495c0,-0.826 0.67,-1.495 1.495,-1.495c0.826,0 1.495,0.669 1.495,1.495" style="fill:#0079bc;fill-rule:nonzero;"/><g id="Object"></g><g id="Designed-by-Freepik" serif:id="Designed by Freepik"></g></svg>